<svg viewBox="0 0 50 50" xmlns="http://www.w3.org/2000/svg"><path d="m25.301 4.478c11.653 0 21.085 9.345 21.085 20.895 0 11.548-9.43 20.896-21.085 20.896-11.652 0-21.084-9.346-21.084-20.896 0-11.548 9.43-20.895 21.084-20.895m-.301-4.478c-13.807 0-25 11.193-25 25s11.193 25 25 25 25-11.193 25-25-11.193-25-25-25zm.301 5.97c-10.646 0-19.277 8.687-19.277 19.403s8.63 19.403 19.277 19.403 19.277-8.687 19.277-19.403-8.63-19.403-19.277-19.403zm0 3.731c1.996 0 3.615 1.671 3.615 3.732 0 2.06-1.619 3.731-3.615 3.731s-3.614-1.67-3.614-3.731c0-2.06 1.618-3.732 3.614-3.732zm11.997 9.927c-2.925.69-5.656 1.296-8.37 1.607.087 10.27 1.254 12.51 2.552 15.821a1.829 1.829 0 0 1 -1.041 2.37 1.835 1.835 0 0 1 -2.376-1.038c-.887-2.268-1.741-4.132-2.268-7.986h-.987c-.527 3.848-1.38 5.714-2.269 7.986a1.835 1.835 0 0 1 -2.375 1.038 1.829 1.829 0 0 1 -1.041-2.37c1.295-3.308 2.464-5.545 2.55-15.821-2.713-.31-5.443-.918-8.369-1.607a1.626 1.626 0 1 1 .75-3.166c9.851 2.32 12.663 2.316 22.495 0a1.627 1.627 0 1 1 .75 3.166z" fill="white"/></svg>
