<svg id="Layer_1" data-name="Layer 1" xmlns="http://www.w3.org/2000/svg" viewBox="0 0 313.55 311.39"><defs><style>.cls-1{fill:#fff;}.cls-2{fill:#ad2b65;}</style></defs><title>logo</title><rect class="cls-1" x="73.65" y="57.22" width="182" height="185" rx="10" ry="10"/><path class="cls-2" d="M311.14,109.49a117.63,117.63,0,0,0-8-13.56C299.49,90.43,295,84.1,290,77.39S279.65,63.62,274.1,56.64s-11.22-13.85-16.63-20.18-10.51-12.09-15-16.84a114.58,114.58,0,0,0-11.3-10.73A28,28,0,0,0,221,4a114.08,114.08,0,0,0-15.5-2.2c-6.54-.58-14.26-1-22.57-1.32S165.71,0,156.81,0,139,.15,130.72.44s-16,.74-22.56,1.32A113.79,113.79,0,0,0,92.68,4,28.06,28.06,0,0,0,82.47,8.89,114,114,0,0,0,71.22,19.62c-4.51,4.75-9.65,10.52-15,16.84s-11,13.21-16.6,20.18-11,14-15.94,20.75-9.45,13-13.09,18.54a120.57,120.57,0,0,0-8,13.56A27.14,27.14,0,0,0,.07,120.56a120.15,120.15,0,0,0,1.4,15.5c.92,6.48,2.23,14.1,3.8,22.27s3.38,16.89,5.36,25.59,4.09,17.37,6.21,25.45,4.24,15.55,6.24,21.85A125.56,125.56,0,0,0,28.54,246a25.93,25.93,0,0,0,7.06,8.87,127.51,127.51,0,0,0,13,8.51c5.65,3.31,12.42,7,19.79,10.87S83.75,282.11,91.76,286s16.09,7.62,23.69,11,14.74,6.38,20.87,8.76a127,127,0,0,0,14.85,5,25.44,25.44,0,0,0,11.32,0,127.77,127.77,0,0,0,14.86-5c6.12-2.38,13.26-5.39,20.86-8.76s15.68-7.14,23.69-11,16-7.87,23.33-11.72,14.13-7.56,19.78-10.87a122.55,122.55,0,0,0,13-8.51,25.93,25.93,0,0,0,7.06-8.87,123.86,123.86,0,0,0,5.47-14.8c2-6.3,4.12-13.78,6.23-21.85S301,192.62,303,183.92s3.82-17.42,5.4-25.59,2.89-15.79,3.8-22.27a120.19,120.19,0,0,0,1.43-15.5A27.33,27.33,0,0,0,311.14,109.49ZM160.41,219.65l-2.25-.07C125.27,218.17,98,202.05,102.4,164.8c2.35-19.8,2.38-49.19,8.86-68,5.92-17.14,23.93-23,45.52-23.51,18.52-.4,27.58,14.69,39.76,32.05,0,0,.6.79,1.77,2.53a12.48,12.48,0,1,0,11.4,19.25c7.62,14.62,12.86,29,13.76,38.41C227,202.89,192.74,220.22,160.41,219.65Zm-4.11-98.22a7.53,7.53,0,1,0,7.5,7.56v0a7.51,7.51,0,0,0-7.49-7.53Z" transform="translate(-0.07 0)"/></svg>